<?xml version="1.0" encoding="UTF-8" standalone="no"?>
<!DOCTYPE svg PUBLIC "-//W3C//DTD SVG 1.1//EN" "http://www.w3.org/Graphics/SVG/1.1/DTD/svg11.dtd">
<svg width="100%" height="100%" viewBox="0 0 567 166" version="1.1" xmlns="http://www.w3.org/2000/svg" xmlns:xlink="http://www.w3.org/1999/xlink" xml:space="preserve" style="fill-rule:evenodd;clip-rule:evenodd;stroke-linejoin:round;stroke-miterlimit:1.41421;">
    <g transform="matrix(1,0,0,1,-367.359,-1242.36)">
        <g transform="matrix(1,0,0,1,0,925.342)">
            <g transform="matrix(1,0,0,1,-30.2292,0)">
                <g transform="matrix(-0.851635,0,0,0.844521,1095.51,-1.4004)">
                    <path d="M745.002,422.092C745.002,422.092 819.504,451.894 819.504,451.894L819.384,506.05L745.122,476.249C745.122,476.249 745.002,422.092 745.002,422.092Z" style="fill:rgb(117,0,1);"/>
                </g>
                <g transform="matrix(0.823732,0.555614,-0.413863,0.613578,-41.3303,-325.449)">
                    <path d="M814.771,458.77L840.426,510.079L789.117,510.079L814.771,458.77Z" style="fill:rgb(177,0,2);"/>
                </g>
                <g transform="matrix(0.823732,0.555614,0.413863,-0.613578,-421.169,283.27)">
                    <path d="M814.771,458.77L840.426,510.079L789.117,510.079L814.771,458.77Z" style="fill:rgb(194,7,0);"/>
                </g>
                <g transform="matrix(0.823732,0.555614,0.413863,-0.613578,-378.904,311.778)">
                    <path d="M814.771,458.77L840.426,510.079L789.117,510.079L814.771,458.77Z" style="fill:rgb(222,8,0);"/>
                </g>
                <g transform="matrix(0.823732,0.555614,0.413863,-0.613578,-463.434,254.761)">
                    <path d="M814.771,458.77L840.426,510.079L789.117,510.079L814.771,458.77Z" style="fill:rgb(165,0,2);"/>
                </g>
                <g transform="matrix(0.823732,0.555614,-0.413863,0.613578,0.934663,-296.94)">
                    <path d="M814.771,458.77L840.426,510.079L789.117,510.079L814.771,458.77Z" style="fill:rgb(209,7,0);"/>
                </g>
                <g transform="matrix(0.851635,0,0,-0.844521,-109.984,801.4)">
                    <path d="M745.002,422.092C745.002,422.092 819.504,451.894 819.504,451.894L819.384,506.05L745.122,476.249C745.122,476.249 745.002,422.092 745.002,422.092Z" style="fill:rgb(117,0,1);"/>
                </g>
                <g transform="matrix(-0.823732,-0.555614,0.413863,-0.613578,1026.85,1125.45)">
                    <path d="M814.771,458.77L840.426,510.079L789.117,510.079L814.771,458.77Z" style="fill:rgb(177,0,2);"/>
                </g>
                <g transform="matrix(-0.823732,-0.555614,-0.413863,0.613578,1406.69,516.73)">
                    <path d="M814.771,458.77L840.426,510.079L789.117,510.079L814.771,458.77Z" style="fill:rgb(194,7,0);"/>
                </g>
                <g transform="matrix(-0.823732,-0.555614,-0.413863,0.613578,1364.43,488.222)">
                    <path d="M814.771,458.77L840.426,510.079L789.117,510.079L814.771,458.77Z" style="fill:rgb(222,8,0);"/>
                </g>
                <g transform="matrix(-0.823732,-0.555614,-0.413863,0.613578,1448.96,545.239)">
                    <path d="M814.771,458.77L840.426,510.079L789.117,510.079L814.771,458.77Z" style="fill:rgb(165,0,2);"/>
                </g>
                <g transform="matrix(-0.823732,-0.555614,0.413863,-0.613578,984.587,1096.94)">
                    <path d="M814.771,458.77L840.426,510.079L789.117,510.079L814.771,458.77Z" style="fill:rgb(209,7,0);"/>
                </g>
            </g>
        </g>
        <g transform="matrix(1,0,0,1,0,925.342)">
            <g id="curves" transform="matrix(8.93709,0,0,8.93709,-3795.39,-4822.18)">
                <path d="M496.517,579.614L497.569,579.614L497.569,586.556C496.909,586.762 496.297,586.865 495.733,586.865C495.313,586.865 494.935,586.8 494.598,586.669C494.261,586.539 493.976,586.356 493.742,586.123C493.508,585.889 493.33,585.612 493.206,585.292C493.082,584.973 493.02,584.62 493.02,584.235C493.02,583.774 493.096,583.379 493.247,583.049C493.398,582.719 493.599,582.447 493.85,582.234C494.101,582.021 494.387,581.865 494.707,581.765C495.026,581.665 495.358,581.615 495.702,581.615C495.839,581.615 495.975,581.624 496.109,581.641C496.243,581.658 496.379,581.684 496.517,581.718L496.517,579.614ZM494.103,584.245C494.103,584.74 494.241,585.141 494.516,585.447C494.791,585.753 495.179,585.906 495.681,585.906C495.819,585.906 495.958,585.899 496.099,585.885C496.24,585.872 496.379,585.848 496.517,585.813L496.517,582.709C496.393,582.674 496.266,582.643 496.135,582.616C496.004,582.588 495.881,582.574 495.764,582.574C495.255,582.574 494.851,582.719 494.552,583.008C494.253,583.296 494.103,583.709 494.103,584.245Z" style="fill:black;fill-rule:nonzero;"/>
                <path d="M498.786,586.834L498.786,581.677L499.838,581.677L499.838,586.834L498.786,586.834" style="fill:black;fill-rule:nonzero;"/>
                <path d="M504.541,586.783C504.273,586.845 504.005,586.875 503.737,586.875C503.393,586.875 503.059,586.826 502.736,586.726C502.413,586.626 502.128,586.47 501.88,586.257C501.632,586.043 501.433,585.772 501.282,585.442C501.131,585.112 501.055,584.716 501.055,584.256C501.055,583.878 501.117,583.527 501.241,583.204C501.364,582.88 501.543,582.602 501.777,582.368C502.011,582.134 502.296,581.952 502.633,581.822C502.97,581.691 503.348,581.626 503.768,581.626C504.049,581.626 504.34,581.653 504.639,581.708C504.938,581.763 505.253,581.839 505.583,581.935L505.583,586.855C505.583,587.261 505.524,587.606 505.407,587.891C505.291,588.177 505.127,588.411 504.918,588.593C504.708,588.775 504.457,588.907 504.165,588.99C503.872,589.072 503.551,589.114 503.2,589.114C502.76,589.114 502.361,589.026 502.004,588.851C501.646,588.675 501.323,588.436 501.034,588.134L501.736,587.371C502.162,587.852 502.657,588.093 503.221,588.093C503.661,588.093 503.991,588.005 504.211,587.83C504.431,587.654 504.541,587.36 504.541,586.948L504.541,586.783ZM502.128,584.245C502.128,584.782 502.277,585.194 502.576,585.483C502.875,585.772 503.279,585.916 503.788,585.916C503.905,585.916 504.027,585.903 504.154,585.875C504.282,585.848 504.41,585.817 504.541,585.782L504.541,582.688C504.287,582.619 504.008,582.585 503.706,582.585C503.211,582.585 502.824,582.738 502.545,583.044C502.267,583.35 502.128,583.75 502.128,584.245Z" style="fill:black;fill-rule:nonzero;"/>
                <rect x="506.8" y="581.677" width="1.052" height="5.157" style="fill:black;fill-rule:nonzero;"/>
                <path d="M512.143,586.834L511.194,586.834L509.048,581.687L510.193,581.687L511.678,585.39L513.184,581.687L514.257,581.687L512.143,586.834Z" style="fill:black;fill-rule:nonzero;"/>
                <path d="M518.63,584.71C518.465,584.648 518.292,584.61 518.109,584.596C517.927,584.582 517.74,584.575 517.547,584.575C517.41,584.575 517.276,584.587 517.145,584.612C517.014,584.636 516.896,584.675 516.789,584.73C516.683,584.785 516.597,584.863 516.531,584.962C516.466,585.062 516.433,585.184 516.433,585.328C516.433,585.528 516.516,585.679 516.681,585.782C516.846,585.885 517.08,585.937 517.382,585.937C517.623,585.937 517.853,585.889 518.073,585.792C518.293,585.696 518.479,585.548 518.63,585.349L518.63,584.71ZM518.63,586.834L518.63,586.587C518.438,586.724 518.226,586.808 517.996,586.839C517.766,586.87 517.513,586.886 517.238,586.886C516.977,586.886 516.732,586.853 516.506,586.788C516.279,586.722 516.083,586.625 515.918,586.494C515.753,586.363 515.624,586.202 515.531,586.009C515.438,585.817 515.392,585.593 515.392,585.339C515.392,585.043 515.447,584.783 515.557,584.56C515.667,584.336 515.814,584.151 516,584.003C516.186,583.855 516.402,583.745 516.65,583.673C516.897,583.601 517.155,583.565 517.423,583.565C517.644,583.565 517.852,583.568 518.047,583.575C518.243,583.582 518.438,583.613 518.63,583.668L518.63,583.544C518.63,583.241 518.534,583.009 518.341,582.848C518.149,582.686 517.884,582.605 517.547,582.605C517.437,582.605 517.334,582.612 517.238,582.626C517.142,582.64 517.049,582.667 516.959,582.709C516.87,582.75 516.781,582.81 516.691,582.889C516.602,582.968 516.506,583.07 516.402,583.193L515.639,582.533C515.907,582.224 516.193,581.995 516.495,581.847C516.798,581.699 517.155,581.626 517.568,581.626C517.877,581.626 518.161,581.665 518.419,581.744C518.677,581.823 518.898,581.94 519.084,582.095C519.27,582.25 519.414,582.442 519.517,582.672C519.62,582.903 519.672,583.166 519.672,583.461L519.672,586.834L518.63,586.834Z" style="fill:black;fill-rule:nonzero;"/>
                <path d="M521.24,582.636L520.807,582.636L520.807,581.657L521.24,581.657L521.24,580.439L522.292,580.439L522.292,581.657L523.127,581.657L523.127,582.636L522.292,582.636L522.292,584.854C522.292,584.991 522.297,585.124 522.307,585.251C522.318,585.378 522.338,585.492 522.369,585.591C522.4,585.691 522.445,585.772 522.503,585.834C522.562,585.896 522.639,585.93 522.735,585.937C522.783,585.944 522.83,585.944 522.875,585.937C522.919,585.93 522.966,585.92 523.014,585.906C523.021,585.906 523.058,585.904 523.127,585.901C523.196,585.897 523.234,585.896 523.241,585.896L523.385,586.783C523.241,586.81 523.112,586.833 522.998,586.85C522.885,586.867 522.794,586.875 522.725,586.875C522.436,586.875 522.195,586.82 522.003,586.71C521.81,586.6 521.657,586.454 521.544,586.272C521.431,586.09 521.351,585.878 521.307,585.638C521.262,585.397 521.24,585.143 521.24,584.875L521.24,582.636Z" style="fill:black;fill-rule:nonzero;"/>
                <path d="M528.975,586.081C528.742,586.343 528.467,586.54 528.15,586.674C527.834,586.808 527.452,586.875 527.005,586.875C526.586,586.875 526.221,586.805 525.912,586.664C525.603,586.523 525.345,586.332 525.138,586.092C524.932,585.851 524.777,585.576 524.674,585.266C524.571,584.957 524.52,584.63 524.52,584.287C524.52,583.833 524.582,583.439 524.705,583.106C524.829,582.772 524.999,582.495 525.216,582.275C525.432,582.055 525.682,581.892 525.964,581.785C526.246,581.679 526.548,581.626 526.871,581.626C527.634,581.626 528.207,581.873 528.589,582.368C528.97,582.863 529.161,583.585 529.161,584.534L525.592,584.534C525.647,584.967 525.8,585.306 526.051,585.55C526.302,585.794 526.634,585.916 527.047,585.916C527.294,585.916 527.531,585.865 527.758,585.762C527.985,585.658 528.209,585.487 528.429,585.246L529.089,585.947L528.975,586.081ZM526.871,582.544C526.493,582.544 526.209,582.64 526.02,582.832C525.831,583.025 525.702,583.276 525.634,583.585L528.088,583.585C528.054,583.29 527.935,583.042 527.732,582.843C527.53,582.643 527.243,582.544 526.871,582.544Z" style="fill:black;fill-rule:nonzero;"/>
                <g transform="matrix(0.107183,0,0,0.107183,428.996,533.287)">
                    <circle cx="656.084" cy="437.64" r="6.122" style="fill:rgb(223,64,0);"/>
                </g>
                <g transform="matrix(0.107183,0,0,0.107183,437.044,533.287)">
                    <circle cx="656.084" cy="437.64" r="6.122" style="fill:rgb(223,136,0);"/>
                </g>
            </g>
        </g>
    </g>
</svg>
