<?xml version="1.0" encoding="UTF-8" standalone="no"?>
<!DOCTYPE svg PUBLIC "-//W3C//DTD SVG 1.1//EN" "http://www.w3.org/Graphics/SVG/1.1/DTD/svg11.dtd">
<svg width="100%" height="100%" viewBox="0 0 390 340" version="1.1" xmlns="http://www.w3.org/2000/svg" xmlns:xlink="http://www.w3.org/1999/xlink" xml:space="preserve" style="fill-rule:evenodd;clip-rule:evenodd;stroke-linejoin:round;stroke-miterlimit:1.41421;">
    <g transform="matrix(1,0,0,1,-1775.42,-230.339)">
        <g transform="matrix(1.61494,0,0,1.61494,936.69,-191)">
            <g transform="matrix(-1.07814,0,0,1.06914,1402.9,-142.202)">
                <path d="M745.002,422.092C745.002,422.092 819.504,451.894 819.504,451.894L819.384,506.05L745.122,476.249C745.122,476.249 745.002,422.092 745.002,422.092Z" style="fill:rgb(117,0,1);"/>
            </g>
            <g transform="matrix(1.04282,0.703391,-0.523938,0.776771,-36.2978,-552.437)">
                <path d="M814.771,458.77L840.426,510.079L789.117,510.079L814.771,458.77Z" style="fill:rgb(177,0,2);"/>
            </g>
            <g transform="matrix(1.04282,0.703391,0.523938,-0.776771,-517.162,218.182)">
                <path d="M814.771,458.77L840.426,510.079L789.117,510.079L814.771,458.77Z" style="fill:rgb(194,7,0);"/>
            </g>
            <g transform="matrix(1.04282,0.703391,0.523938,-0.776771,-463.656,254.272)">
                <path d="M814.771,458.77L840.426,510.079L789.117,510.079L814.771,458.77Z" style="fill:rgb(222,8,0);"/>
            </g>
            <g transform="matrix(1.04282,0.703391,0.523938,-0.776771,-570.668,182.091)">
                <path d="M814.771,458.77L840.426,510.079L789.117,510.079L814.771,458.77Z" style="fill:rgb(165,0,2);"/>
            </g>
            <g transform="matrix(1.04282,0.703391,-0.523938,0.776771,17.2084,-516.347)">
                <path d="M814.771,458.77L840.426,510.079L789.117,510.079L814.771,458.77Z" style="fill:rgb(209,7,0);"/>
            </g>
            <g transform="matrix(1.07814,0,0,-1.06914,-123.212,874.119)">
                <path d="M745.002,422.092C745.002,422.092 819.504,451.894 819.504,451.894L819.384,506.05L745.122,476.249C745.122,476.249 745.002,422.092 745.002,422.092Z" style="fill:rgb(117,0,1);"/>
            </g>
            <g transform="matrix(-1.04282,-0.703391,0.523938,-0.776771,1315.99,1284.35)">
                <path d="M814.771,458.77L840.426,510.079L789.117,510.079L814.771,458.77Z" style="fill:rgb(177,0,2);"/>
            </g>
            <g transform="matrix(-1.04282,-0.703391,-0.523938,0.776771,1796.85,513.736)">
                <path d="M814.771,458.77L840.426,510.079L789.117,510.079L814.771,458.77Z" style="fill:rgb(194,7,0);"/>
            </g>
            <g transform="matrix(-1.04282,-0.703391,-0.523938,0.776771,1743.35,477.646)">
                <path d="M814.771,458.77L840.426,510.079L789.117,510.079L814.771,458.77Z" style="fill:rgb(222,8,0);"/>
            </g>
            <g transform="matrix(-1.04282,-0.703391,-0.523938,0.776771,1850.36,549.826)">
                <path d="M814.771,458.77L840.426,510.079L789.117,510.079L814.771,458.77Z" style="fill:rgb(165,0,2);"/>
            </g>
            <g transform="matrix(-1.04282,-0.703391,0.523938,-0.776771,1262.48,1248.26)">
                <path d="M814.771,458.77L840.426,510.079L789.117,510.079L814.771,458.77Z" style="fill:rgb(209,7,0);"/>
            </g>
        </g>
    </g>
</svg>
