<?xml version="1.0" encoding="UTF-8" standalone="no"?>
<!DOCTYPE svg PUBLIC "-//W3C//DTD SVG 1.1//EN" "http://www.w3.org/Graphics/SVG/1.1/DTD/svg11.dtd">
<svg width="100%" height="100%" viewBox="0 0 409 242" version="1.1" xmlns="http://www.w3.org/2000/svg" xmlns:xlink="http://www.w3.org/1999/xlink" xml:space="preserve" style="fill-rule:evenodd;clip-rule:evenodd;stroke-linejoin:round;stroke-miterlimit:1.41421;">
    <g transform="matrix(4.16667,0,0,4.16667,0,0)">
        <path d="M97.7,58L0,36.319L0,0.7L97.7,22.383L97.7,58Z" style="fill:rgb(187,176,173);fill-rule:nonzero;"/>
        <path d="M0,36.319L36.388,36.319L72,0.7L0,0.7L0,36.319Z" style="fill:url(#_Linear1);fill-rule:nonzero;"/>
        <path d="M43.145,17.745L41.584,17.745L41.584,12.034L43.145,12.034C45.226,12.034 46.888,12.725 46.888,14.852C46.888,17.051 45.226,17.745 43.145,17.745ZM26.348,21.817C25.522,21.817 24.747,21.672 24.078,21.42L26.324,14.332L26.367,14.332L28.574,21.44C27.911,21.676 27.153,21.817 26.348,21.817ZM42.729,7.399L35.641,7.393L35.641,24.245L29.45,7.393L23.312,7.393L18.025,21.487C17.462,17.934 13.787,16.706 10.894,15.786C8.985,15.172 6.958,14.27 6.978,13.274C6.994,12.456 8.064,11.696 10.187,11.809C11.613,11.885 12.871,12 15.374,13.207L17.835,8.92C15.55,7.758 12.394,7.024 9.807,7.02L9.792,7.02C6.775,7.02 4.261,7.997 2.703,9.608C1.617,10.733 1.031,12.163 1.007,13.743C0.968,15.916 1.765,17.459 3.441,18.69C4.856,19.727 6.666,20.401 8.26,20.895C10.228,21.504 11.834,22.034 11.816,23.164C11.8,23.575 11.644,23.959 11.348,24.27C10.859,24.778 10.105,24.967 9.064,24.987C7.057,25.028 5.568,24.715 3.196,23.313L1.007,27.661C3.373,29.006 6.173,29.795 9.031,29.795L9.398,29.791C11.886,29.747 13.893,29.038 15.497,27.747C15.589,27.672 15.671,27.598 15.757,27.524L15.045,29.422L21.484,29.422L22.564,26.135C23.695,26.522 24.982,26.735 26.348,26.735C27.679,26.735 28.932,26.532 30.043,26.168L31.084,29.422L41.584,29.422L41.584,22.618L43.873,22.618C49.41,22.618 52.683,19.797 52.683,15.075C52.683,9.813 49.502,7.399 42.729,7.399Z" style="fill:white;"/>
        <path d="M19.276,55.559L21.064,55.559L21.064,55.928L20.383,55.928L20.383,58L19.954,58L19.954,55.928L19.276,55.928L19.276,55.559Z" style="fill:rgb(162,149,145);fill-rule:nonzero;"/>
        <path d="M23.526,56.073L23.52,56.073L22.816,58L22.459,58L21.761,56.073L21.754,56.073L21.754,58L21.323,58L21.323,55.559L21.985,55.559L22.638,57.352L23.301,55.559L23.959,55.559L23.959,58L23.526,58L23.526,56.073Z" style="fill:rgb(162,149,145);fill-rule:nonzero;"/>
        <path d="M61.311,22.383L25.694,58L26.901,57.5L61.518,22.883L97.2,22.883L97.7,22.383L61.311,22.383Z" style="fill:rgb(203,195,192);fill-rule:nonzero;"/>
        <path d="M97.7,22.383L97.2,22.883L61.518,22.883L26.901,57.5L25.694,58L97.7,58L97.7,22.383Z" style="fill:url(#_Linear2);"/>
        <path d="M67.686,40.122C67.226,40.122 66.807,40.069 66.431,39.965C66.055,39.859 65.718,39.716 65.42,39.532C65.123,39.349 64.863,39.129 64.64,38.872C64.418,38.616 64.225,38.334 64.064,38.027L65.48,37.185C65.715,37.653 66.035,38.012 66.437,38.261C66.839,38.51 67.286,38.634 67.776,38.634C68.214,38.634 68.571,38.554 68.846,38.393C69.121,38.231 69.258,37.986 69.258,37.656C69.258,37.335 69.112,37.088 68.818,36.916C68.524,36.743 68.096,36.58 67.535,36.427C67.153,36.322 66.778,36.212 66.409,36.096C66.041,35.979 65.709,35.828 65.415,35.641C65.121,35.454 64.883,35.216 64.702,34.928C64.52,34.64 64.429,34.272 64.429,33.827C64.429,33.431 64.504,33.074 64.654,32.76C64.804,32.445 65.012,32.179 65.28,31.96C65.547,31.741 65.87,31.574 66.246,31.46C66.623,31.346 67.041,31.289 67.502,31.289C67.939,31.289 68.332,31.337 68.68,31.433C69.029,31.527 69.341,31.656 69.618,31.816C69.895,31.977 70.136,32.164 70.342,32.376C70.548,32.587 70.728,32.807 70.881,33.035L69.585,34.023C69.36,33.657 69.058,33.364 68.68,33.144C68.302,32.926 67.906,32.816 67.49,32.816C67.093,32.816 66.789,32.894 66.578,33.053C66.366,33.209 66.26,33.415 66.26,33.67C66.26,34.007 66.412,34.258 66.714,34.422C67.018,34.587 67.449,34.746 68.006,34.899C68.384,35.001 68.757,35.112 69.124,35.233C69.491,35.355 69.82,35.514 70.112,35.708C70.404,35.903 70.64,36.146 70.82,36.438C71,36.73 71.089,37.096 71.089,37.533C71.089,37.878 71.022,38.205 70.887,38.516C70.752,38.826 70.547,39.101 70.272,39.339C69.997,39.576 69.645,39.767 69.216,39.908C68.788,40.051 68.278,40.122 67.686,40.122Z" style="fill:white;fill-rule:nonzero;"/>
        <path d="M71.961,39.959L71.961,33.827L73.803,33.827L73.803,39.959L71.961,39.959ZM71.95,32.99L71.95,31.508L73.814,31.508L73.814,32.99L71.95,32.99Z" style="fill:white;fill-rule:nonzero;"/>
        <rect x="74.801" y="31.446" width="1.842" height="8.513" style="fill:white;fill-rule:nonzero;"/>
        <path d="M79.355,39.971L77.16,33.827L79.069,33.827L80.355,37.909L80.377,37.909L81.668,33.827L83.404,33.827L81.219,39.971L79.355,39.971Z" style="fill:white;fill-rule:nonzero;"/>
        <path d="M87.52,36.304C87.43,35.45 87.039,35.023 86.346,35.023C86.058,35.023 85.802,35.123 85.58,35.323C85.357,35.523 85.21,35.851 85.139,36.304L87.52,36.304ZM86.408,40.088C86.007,40.088 85.619,40.032 85.243,39.92C84.867,39.808 84.534,39.627 84.244,39.378C83.954,39.129 83.72,38.802 83.544,38.395C83.369,37.989 83.281,37.49 83.281,36.898C83.281,36.3 83.381,35.797 83.584,35.391C83.786,34.984 84.041,34.657 84.347,34.408C84.654,34.159 84.988,33.979 85.347,33.869C85.707,33.759 86.043,33.703 86.357,33.703C86.671,33.703 86.997,33.751 87.332,33.847C87.667,33.942 87.97,34.116 88.242,34.369C88.513,34.622 88.737,34.969 88.913,35.41C89.088,35.852 89.176,36.422 89.176,37.117L89.176,37.393L85.117,37.393C85.166,37.898 85.318,38.259 85.574,38.474C85.831,38.689 86.154,38.797 86.543,38.797C86.91,38.797 87.252,38.722 87.57,38.572C87.888,38.422 88.153,38.252 88.362,38.06L89.076,39.167C88.353,39.781 87.463,40.088 86.408,40.088Z" style="fill:white;fill-rule:nonzero;"/>
        <path d="M89.961,39.959L89.961,33.827L91.814,33.827L91.814,34.854L91.826,34.854C91.908,34.724 92.009,34.591 92.128,34.456C92.249,34.321 92.391,34.198 92.555,34.088C92.72,33.977 92.912,33.886 93.131,33.813C93.35,33.74 93.604,33.703 93.892,33.703L93.954,33.703L93.925,35.349C93.888,35.342 93.814,35.334 93.704,35.326C93.593,35.319 93.506,35.315 93.443,35.315C93.076,35.315 92.756,35.399 92.485,35.568C92.213,35.736 91.99,35.931 91.814,36.152L91.814,39.959L89.961,39.959Z" style="fill:white;fill-rule:nonzero;"/>
        <path d="M55.529,46.684L56.809,46.684C57.389,46.684 57.8,46.577 58.042,46.363C58.284,46.15 58.404,45.836 58.404,45.42C58.404,45.023 58.286,44.718 58.047,44.502C57.81,44.287 57.397,44.18 56.809,44.18L55.529,44.18L55.529,46.684ZM53.67,51.159L53.67,42.646L56.764,42.646C57.213,42.646 57.648,42.683 58.067,42.756C58.487,42.829 58.857,42.968 59.179,43.172C59.501,43.376 59.757,43.653 59.949,44.006C60.139,44.357 60.235,44.814 60.235,45.375C60.235,45.948 60.133,46.413 59.931,46.77C59.729,47.128 59.46,47.408 59.126,47.61C58.791,47.812 58.415,47.95 57.997,48.023C57.58,48.096 57.16,48.133 56.736,48.133L55.529,48.133L55.529,51.159L53.67,51.159Z" style="fill:white;fill-rule:nonzero;"/>
        <path d="M62.822,49.862C63.144,49.862 63.419,49.811 63.65,49.711C63.88,49.609 64.07,49.482 64.22,49.328L64.22,48.194C63.486,48.269 62.957,48.396 62.63,48.576C62.305,48.756 62.142,48.988 62.142,49.272C62.142,49.471 62.205,49.619 62.331,49.716C62.456,49.813 62.62,49.862 62.822,49.862ZM62.086,51.249C61.846,51.249 61.621,51.213 61.41,51.14C61.198,51.066 61.012,50.96 60.851,50.819C60.69,50.679 60.564,50.505 60.472,50.297C60.38,50.09 60.335,49.854 60.335,49.593C60.335,48.889 60.645,48.338 61.266,47.938C61.888,47.54 62.873,47.286 64.22,47.178L64.22,47.032C64.22,46.808 64.158,46.629 64.032,46.496C63.907,46.363 63.694,46.297 63.394,46.297C63.005,46.297 62.643,46.366 62.308,46.507C61.973,46.647 61.666,46.83 61.384,47.055L60.598,45.993C60.752,45.858 60.926,45.726 61.124,45.595C61.32,45.464 61.541,45.347 61.786,45.243C62.031,45.141 62.309,45.059 62.62,44.996C62.93,44.935 63.277,44.904 63.659,44.904C64.501,44.904 65.106,45.106 65.475,45.513C65.843,45.919 66.028,46.518 66.028,47.307L66.028,49.666C66.028,50.032 66.042,50.335 66.068,50.572C66.093,50.81 66.138,51.006 66.203,51.159L64.361,51.159C64.323,51.028 64.291,50.89 64.262,50.744C64.234,50.598 64.22,50.436 64.22,50.261C63.939,50.583 63.627,50.828 63.285,50.996C62.943,51.165 62.543,51.249 62.086,51.249Z" style="fill:white;fill-rule:nonzero;"/>
        <path d="M67.088,51.159L67.088,45.027L68.941,45.027L68.941,46.055L68.953,46.055C69.035,45.924 69.136,45.791 69.255,45.656C69.376,45.521 69.518,45.398 69.682,45.288C69.847,45.178 70.039,45.086 70.258,45.014C70.477,44.94 70.731,44.904 71.019,44.904L71.081,44.904L71.052,46.549C71.015,46.542 70.941,46.534 70.831,46.526C70.72,46.519 70.633,46.516 70.57,46.516C70.203,46.516 69.883,46.6 69.612,46.768C69.34,46.936 69.117,47.131 68.941,47.352L68.941,51.159L67.088,51.159Z" style="fill:white;fill-rule:nonzero;"/>
        <path d="M74.748,51.238C74.294,51.238 73.929,51.197 73.653,51.117C73.376,51.036 73.165,50.92 73.021,50.766C72.877,50.612 72.782,50.426 72.735,50.205C72.688,49.983 72.665,49.727 72.665,49.435L72.665,46.375L71.642,46.375L71.642,45.027L72.665,45.027L72.665,42.928L74.506,42.928L74.506,45.027L76.079,45.027L76.079,46.375L74.506,46.375L74.506,49.031C74.506,49.36 74.563,49.587 74.677,49.711C74.792,49.834 75.017,49.895 75.354,49.895C75.462,49.895 75.576,49.891 75.694,49.879C75.812,49.867 75.903,49.849 75.966,49.822L75.966,51.148C75.928,51.155 75.863,51.165 75.769,51.176C75.676,51.187 75.57,51.196 75.453,51.204C75.335,51.212 75.211,51.219 75.085,51.227C74.958,51.234 74.845,51.238 74.748,51.238Z" style="fill:white;fill-rule:nonzero;"/>
        <path d="M76.801,51.159L76.801,45.027L78.655,45.027L78.655,45.993C78.745,45.873 78.855,45.75 78.986,45.623C79.117,45.495 79.27,45.378 79.447,45.271C79.623,45.165 79.82,45.077 80.039,45.008C80.257,44.938 80.502,44.904 80.771,44.904C81.03,44.904 81.268,44.938 81.488,45.008C81.707,45.077 81.894,45.183 82.052,45.325C82.209,45.467 82.332,45.65 82.419,45.875C82.507,46.1 82.551,46.369 82.551,46.684L82.551,51.159L80.71,51.159L80.71,47.273C80.71,46.996 80.655,46.787 80.544,46.644C80.434,46.502 80.248,46.432 79.986,46.432C79.742,46.432 79.511,46.489 79.292,46.605C79.073,46.722 78.861,46.867 78.655,47.043L78.655,51.159L76.801,51.159Z" style="fill:white;fill-rule:nonzero;"/>
        <path d="M87.521,47.504C87.431,46.65 87.04,46.224 86.347,46.224C86.059,46.224 85.803,46.323 85.581,46.523C85.358,46.724 85.211,47.051 85.14,47.504L87.521,47.504ZM86.409,51.288C86.008,51.288 85.62,51.232 85.244,51.12C84.868,51.008 84.535,50.827 84.245,50.578C83.955,50.329 83.721,50.002 83.545,49.596C83.37,49.189 83.281,48.69 83.281,48.099C83.281,47.5 83.382,46.997 83.585,46.591C83.787,46.185 84.042,45.857 84.348,45.608C84.655,45.359 84.988,45.18 85.347,45.069C85.707,44.959 86.044,44.904 86.359,44.904C86.673,44.904 86.998,44.951 87.333,45.047C87.668,45.143 87.971,45.316 88.243,45.569C88.514,45.822 88.738,46.169 88.914,46.611C89.089,47.053 89.177,47.621 89.177,48.318L89.177,48.593L85.118,48.593C85.167,49.099 85.319,49.459 85.575,49.674C85.832,49.89 86.155,49.997 86.543,49.997C86.911,49.997 87.253,49.922 87.572,49.772C87.889,49.622 88.154,49.452 88.363,49.262L89.076,50.367C88.354,50.981 87.464,51.288 86.409,51.288Z" style="fill:white;fill-rule:nonzero;"/>
        <path d="M89.961,51.159L89.961,45.027L91.814,45.027L91.814,46.055L91.826,46.055C91.908,45.924 92.009,45.791 92.128,45.656C92.249,45.521 92.391,45.398 92.555,45.288C92.72,45.178 92.912,45.086 93.131,45.014C93.35,44.94 93.604,44.904 93.892,44.904L93.954,44.904L93.925,46.549C93.888,46.542 93.814,46.534 93.704,46.526C93.593,46.519 93.506,46.516 93.443,46.516C93.076,46.516 92.756,46.6 92.485,46.768C92.213,46.936 91.99,47.131 91.814,47.352L91.814,51.159L89.961,51.159Z" style="fill:white;fill-rule:nonzero;"/>
    </g>
    <defs>
        <linearGradient id="_Linear1" x1="0" y1="0" x2="1" y2="0" gradientUnits="userSpaceOnUse" gradientTransform="matrix(-1.55696e-06,35.6191,-35.6191,-1.55696e-06,36,0.699199)"><stop offset="0%" style="stop-color:rgb(101,154,197);stop-opacity:1"/><stop offset="100%" style="stop-color:rgb(62,108,147);stop-opacity:1"/></linearGradient>
        <linearGradient id="_Linear2" x1="0" y1="0" x2="1" y2="0" gradientUnits="userSpaceOnUse" gradientTransform="matrix(-1.55688e-06,35.6172,-35.6172,-1.55688e-06,61.6973,22.3828)"><stop offset="0%" style="stop-color:rgb(204,196,193);stop-opacity:1"/><stop offset="100%" style="stop-color:rgb(126,112,109);stop-opacity:1"/></linearGradient>
    </defs>
</svg>
